<svg version="1.1" id="Layer_1" xmlns="http://www.w3.org/2000/svg" xmlns:xlink="http://www.w3.org/1999/xlink" x="0px" y="0px"
	 width="100%" viewBox="0 0 500 500" enable-background="new 0 0 500 500" xml:space="preserve">
<path fill="#010000" opacity="1.000000" stroke="none" 
	d="
M272.000000,501.000000 
	C181.333359,501.000000 91.166710,501.000000 1.000048,501.000000 
	C1.000032,334.333405 1.000032,167.666794 1.000016,1.000138 
	C167.666565,1.000092 334.333130,1.000092 500.999756,1.000046 
	C500.999847,167.666519 500.999847,334.333038 500.999939,500.999786 
	C424.833344,501.000000 348.666656,501.000000 272.000000,501.000000 
M419.845184,102.735085 
	C418.926819,104.369812 417.348480,105.943970 417.192047,107.648613 
	C415.593964,125.061905 414.247223,142.498108 412.778717,159.923569 
	C412.474335,163.535904 411.957703,167.130356 411.538879,170.733047 
	C410.397247,170.099060 410.149292,169.527084 410.099548,168.938370 
	C408.375214,148.526184 406.572876,128.119614 405.049347,107.692291 
	C404.770599,103.954857 403.837677,102.294029 399.805969,102.634712 
	C395.669861,102.984215 391.451050,103.024788 387.323608,102.627365 
	C382.825500,102.194252 381.336792,103.803001 381.017517,108.281334 
	C379.809570,125.223740 378.245453,142.141357 376.734283,159.061081 
	C376.374603,163.088089 375.703583,167.087280 375.175751,171.099274 
	C374.827087,171.063354 374.478394,171.027435 374.129730,170.991516 
	C372.098602,148.344330 370.067505,125.697159 368.045807,103.154724 
	C359.712921,103.154724 351.999695,103.154724 344.119995,103.154724 
	C348.497864,143.953018 352.826599,184.293350 357.167603,224.747955 
	C367.352570,224.747955 377.110504,224.747955 387.110321,224.747955 
	C388.811432,207.876831 390.489716,191.231903 392.168030,174.586960 
	C392.671631,174.546448 393.175232,174.505951 393.678864,174.465439 
	C395.497650,191.257431 397.316437,208.049408 399.126831,224.763855 
	C409.155273,224.763855 418.597839,224.763855 428.464966,224.763855 
	C432.903656,184.137131 437.321503,143.701385 441.799316,102.716614 
	C434.385559,102.716614 427.586487,102.716614 419.845184,102.735085 
M87.972984,201.499969 
	C87.972984,190.773300 87.972984,180.046616 87.972984,169.292328 
	C96.020615,169.755524 97.070709,170.782623 97.096016,178.024887 
	C97.144333,191.852310 97.112068,205.680023 97.113205,219.507614 
	C97.113350,221.260651 97.113228,223.013672 97.113228,224.717224 
	C105.486664,224.717224 113.083565,224.717224 121.293373,224.717224 
	C121.293373,208.814133 121.315475,193.190506 121.283295,177.566986 
	C121.268944,170.602676 119.524155,164.472900 111.820099,160.997253 
	C119.702202,157.248184 122.391266,150.774887 122.565964,143.572998 
	C122.766548,135.304504 122.597786,126.871048 121.175278,118.757187 
	C119.230820,107.666153 112.896698,102.971954 101.544174,102.784744 
	C89.885452,102.592499 78.221306,102.712578 66.559654,102.742638 
	C65.476143,102.745430 64.393494,103.084572 63.457809,103.242645 
	C63.457809,143.989426 63.457809,184.371811 63.457809,224.696442 
	C71.760765,224.696442 79.681419,224.696442 87.972984,224.696442 
	C87.972984,217.097702 87.972984,209.798813 87.972984,201.499969 
M197.501678,102.473907 
	C193.777023,102.473907 190.052368,102.473907 186.028702,102.473907 
	C191.130753,143.834564 196.116333,184.250961 201.112335,224.751953 
	C212.463867,224.751953 223.392853,224.751953 234.680222,224.751953 
	C239.694855,184.034790 244.683899,143.525284 249.699905,102.796967 
	C241.472794,102.796967 234.051926,102.796967 226.351288,102.796967 
	C223.842758,128.742493 221.362228,154.398438 218.881699,180.054382 
	C217.645187,177.781693 217.284485,175.517136 217.040558,173.240067 
	C214.894592,153.207138 212.865723,133.161087 210.599136,113.141907 
	C209.388962,102.453323 209.208557,102.473747 197.501678,102.473907 
M172.455170,102.713844 
	C158.846268,102.713844 145.237366,102.713844 131.465805,102.713844 
	C131.465805,143.770462 131.465805,184.269897 131.465805,224.611115 
	C148.411118,224.611115 164.967407,224.611115 181.452515,224.611115 
	C181.452515,216.647171 181.452515,209.079346 181.452515,200.977585 
	C172.854614,200.977585 164.622925,200.977585 156.474182,200.977585 
	C156.474182,191.388748 156.474182,182.351852 156.474182,172.920517 
	C164.158722,172.920517 171.421463,172.920517 178.747681,172.920517 
	C178.747681,165.128586 178.747681,157.750656 178.747681,149.807129 
	C171.014847,149.807129 163.625931,149.807129 156.453735,149.807129 
	C156.453735,141.667694 156.453735,134.107315 156.453735,126.115295 
	C164.442169,126.115295 172.032516,126.115295 179.743408,126.115295 
	C179.743408,118.116600 179.743408,110.572845 179.743408,102.713852 
	C177.406677,102.713852 175.425308,102.713852 172.455170,102.713844 
M325.492920,150.044830 
	C321.730042,150.044830 317.967133,150.044830 314.255127,150.044830 
	C314.255127,141.791061 314.255127,134.225250 314.255127,126.024658 
	C322.296661,126.024658 330.008972,126.024658 337.636719,126.024658 
	C337.636719,117.958038 337.636719,110.539619 337.636719,103.124275 
	C321.283630,103.124275 305.252441,103.124275 289.269470,103.124275 
	C289.269470,143.912033 289.269470,184.290390 289.269470,224.597687 
	C306.131500,224.597687 322.663971,224.597687 339.038971,224.597687 
	C339.038971,216.628067 339.038971,209.067383 339.038971,201.044525 
	C330.525909,201.044525 322.443176,201.044525 314.274811,201.044525 
	C314.274811,191.522354 314.274811,182.485535 314.274811,172.852448 
	C322.011414,172.852448 329.394592,172.852448 336.654297,172.852448 
	C336.654297,164.988342 336.654297,157.730392 336.654297,150.044830 
	C333.069733,150.044830 329.773010,150.044830 325.492920,150.044830 
M255.467484,150.499664 
	C255.467484,175.246307 255.467484,199.992950 255.467484,224.614441 
	C263.813629,224.614441 271.382294,224.614441 278.763367,224.614441 
	C278.763367,183.828781 278.763367,143.438660 278.763367,103.123184 
	C270.838837,103.123184 263.280579,103.123184 255.467560,103.123184 
	C255.467560,118.862335 255.467560,134.180984 255.467484,150.499664 
M167.848862,377.220734 
	C170.503006,377.635681 171.261948,376.265991 171.415222,373.841614 
	C171.801422,367.733063 172.382156,361.636871 172.885742,355.525726 
	C177.182022,355.525726 180.921951,355.525726 184.900009,355.525726 
	C185.622177,362.865234 186.317642,369.933411 186.998611,376.854309 
	C197.394394,376.854309 207.291794,376.854309 217.591507,376.854309 
	C213.079407,329.621857 208.606079,282.795502 204.146149,236.109192 
	C186.899826,236.109192 170.304947,236.109192 153.450714,236.109192 
	C148.901947,283.209625 144.382233,330.009094 139.822464,377.223450 
	C149.323624,377.223450 158.143173,377.223450 167.848862,377.220734 
M286.164124,310.619293 
	C294.378326,291.868286 294.201294,272.746002 287.922424,253.655930 
	C284.713257,243.898880 277.390076,237.199066 267.102081,236.593155 
	C251.882278,235.696762 236.570572,236.361404 221.321396,236.361404 
	C221.321396,283.184540 221.321396,330.051025 221.321396,376.804626 
	C231.906738,376.804626 242.127350,376.804626 252.747604,376.804626 
	C252.747604,358.774048 252.747604,341.168365 252.747604,323.063629 
	C265.482666,323.238739 278.182648,323.920105 286.164124,310.619293 
M296.102936,248.523193 
	C296.102936,291.283112 296.102936,334.043030 296.102936,376.972168 
	C306.955872,376.972168 317.230743,376.972168 327.993408,376.972168 
	C327.993408,358.967896 327.993408,341.217682 327.993408,323.035004 
	C332.099762,323.035004 335.731079,323.101654 339.359222,323.022797 
	C351.496124,322.759064 360.167694,316.786835 363.826172,305.305054 
	C368.575073,290.400940 368.913849,275.086823 365.172455,259.992676 
	C360.881317,242.680557 352.357544,236.230774 334.574615,235.838531 
	C322.750793,235.577728 310.916656,235.774063 299.087250,235.803284 
	C298.165009,235.805557 297.243469,236.103882 296.102936,236.302734 
	C296.102936,240.226547 296.102936,243.880966 296.102936,248.523193 
z"/>
<path fill="#F74C1F" opacity="1.000000" stroke="none" 
	d="
M420.316315,102.725845 
	C427.586487,102.716614 434.385559,102.716614 441.799316,102.716614 
	C437.321503,143.701385 432.903656,184.137131 428.464966,224.763855 
	C418.597839,224.763855 409.155273,224.763855 399.126831,224.763855 
	C397.316437,208.049408 395.497650,191.257431 393.678864,174.465439 
	C393.175232,174.505951 392.671631,174.546448 392.168030,174.586960 
	C390.489716,191.231903 388.811432,207.876831 387.110321,224.747955 
	C377.110504,224.747955 367.352570,224.747955 357.167603,224.747955 
	C352.826599,184.293350 348.497864,143.953018 344.119995,103.154724 
	C351.999695,103.154724 359.712921,103.154724 368.045807,103.154724 
	C370.067505,125.697159 372.098602,148.344330 374.129730,170.991516 
	C374.478394,171.027435 374.827087,171.063354 375.175751,171.099274 
	C375.703583,167.087280 376.374603,163.088089 376.734283,159.061081 
	C378.245453,142.141357 379.809570,125.223740 381.017517,108.281334 
	C381.336792,103.803001 382.825500,102.194252 387.323608,102.627365 
	C391.451050,103.024788 395.669861,102.984215 399.805969,102.634712 
	C403.837677,102.294029 404.770599,103.954857 405.049347,107.692291 
	C406.572876,128.119614 408.375214,148.526184 410.099548,168.938370 
	C410.149292,169.527084 410.397247,170.099060 411.538879,170.733047 
	C411.957703,167.130356 412.474335,163.535904 412.778717,159.923569 
	C414.247223,142.498108 415.593964,125.061905 417.192047,107.648613 
	C417.348480,105.943970 418.926819,104.369812 420.316315,102.725845 
z"/>
<path fill="#F74C1F" opacity="1.000000" stroke="none" 
	d="
M87.972984,201.999954 
	C87.972984,209.798813 87.972984,217.097702 87.972984,224.696442 
	C79.681419,224.696442 71.760765,224.696442 63.457809,224.696442 
	C63.457809,184.371811 63.457809,143.989426 63.457809,103.242645 
	C64.393494,103.084572 65.476143,102.745430 66.559654,102.742638 
	C78.221306,102.712578 89.885452,102.592499 101.544174,102.784744 
	C112.896698,102.971954 119.230820,107.666153 121.175278,118.757187 
	C122.597786,126.871048 122.766548,135.304504 122.565964,143.572998 
	C122.391266,150.774887 119.702202,157.248184 111.820099,160.997253 
	C119.524155,164.472900 121.268944,170.602676 121.283295,177.566986 
	C121.315475,193.190506 121.293373,208.814133 121.293373,224.717224 
	C113.083565,224.717224 105.486664,224.717224 97.113228,224.717224 
	C97.113228,223.013672 97.113350,221.260651 97.113205,219.507614 
	C97.112068,205.680023 97.144333,191.852310 97.096016,178.024887 
	C97.070709,170.782623 96.020615,169.755524 87.972984,169.292328 
	C87.972984,180.046616 87.972984,190.773300 87.972984,201.999954 
M97.353073,145.775070 
	C97.905472,141.870758 98.872734,137.971909 98.924232,134.061005 
	C99.032799,125.815826 96.969955,124.328812 88.440140,125.778633 
	C88.440140,133.107666 88.440140,140.453278 88.440140,148.719223 
	C91.660187,147.862411 94.275803,147.166428 97.353073,145.775070 
z"/>
<path fill="#F54C1F" opacity="1.000000" stroke="none" 
	d="
M197.986176,102.473938 
	C209.208557,102.473747 209.388962,102.453323 210.599136,113.141907 
	C212.865723,133.161087 214.894592,153.207138 217.040558,173.240067 
	C217.284485,175.517136 217.645187,177.781693 218.881699,180.054382 
	C221.362228,154.398438 223.842758,128.742493 226.351288,102.796967 
	C234.051926,102.796967 241.472794,102.796967 249.699905,102.796967 
	C244.683899,143.525284 239.694855,184.034790 234.680222,224.751953 
	C223.392853,224.751953 212.463867,224.751953 201.112335,224.751953 
	C196.116333,184.250961 191.130753,143.834564 186.028702,102.473907 
	C190.052368,102.473907 193.777023,102.473907 197.986176,102.473938 
z"/>
<path fill="#F74D1F" opacity="1.000000" stroke="none" 
	d="
M172.949554,102.713852 
	C175.425308,102.713852 177.406677,102.713852 179.743408,102.713852 
	C179.743408,110.572845 179.743408,118.116600 179.743408,126.115295 
	C172.032516,126.115295 164.442169,126.115295 156.453735,126.115295 
	C156.453735,134.107315 156.453735,141.667694 156.453735,149.807129 
	C163.625931,149.807129 171.014847,149.807129 178.747681,149.807129 
	C178.747681,157.750656 178.747681,165.128586 178.747681,172.920517 
	C171.421463,172.920517 164.158722,172.920517 156.474182,172.920517 
	C156.474182,182.351852 156.474182,191.388748 156.474182,200.977585 
	C164.622925,200.977585 172.854614,200.977585 181.452515,200.977585 
	C181.452515,209.079346 181.452515,216.647171 181.452515,224.611115 
	C164.967407,224.611115 148.411118,224.611115 131.465805,224.611115 
	C131.465805,184.269897 131.465805,143.770462 131.465805,102.713844 
	C145.237366,102.713844 158.846268,102.713844 172.949554,102.713852 
z"/>
<path fill="#F84D1F" opacity="1.000000" stroke="none" 
	d="
M325.984589,150.044830 
	C329.773010,150.044830 333.069733,150.044830 336.654297,150.044830 
	C336.654297,157.730392 336.654297,164.988342 336.654297,172.852448 
	C329.394592,172.852448 322.011414,172.852448 314.274811,172.852448 
	C314.274811,182.485535 314.274811,191.522354 314.274811,201.044525 
	C322.443176,201.044525 330.525909,201.044525 339.038971,201.044525 
	C339.038971,209.067383 339.038971,216.628067 339.038971,224.597687 
	C322.663971,224.597687 306.131500,224.597687 289.269470,224.597687 
	C289.269470,184.290390 289.269470,143.912033 289.269470,103.124275 
	C305.252441,103.124275 321.283630,103.124275 337.636719,103.124275 
	C337.636719,110.539619 337.636719,117.958038 337.636719,126.024658 
	C330.008972,126.024658 322.296661,126.024658 314.255127,126.024658 
	C314.255127,134.225250 314.255127,141.791061 314.255127,150.044830 
	C317.967133,150.044830 321.730042,150.044830 325.984589,150.044830 
z"/>
<path fill="#F44B1E" opacity="1.000000" stroke="none" 
	d="
M255.467529,149.999664 
	C255.467560,134.180984 255.467560,118.862335 255.467560,103.123184 
	C263.280579,103.123184 270.838837,103.123184 278.763367,103.123184 
	C278.763367,143.438660 278.763367,183.828781 278.763367,224.614441 
	C271.382294,224.614441 263.813629,224.614441 255.467484,224.614441 
	C255.467484,199.992950 255.467484,175.246307 255.467529,149.999664 
z"/>
<path fill="#E9481D" opacity="1.000000" stroke="none" 
	d="
M167.405792,377.222107 
	C158.143173,377.223450 149.323624,377.223450 139.822464,377.223450 
	C144.382233,330.009094 148.901947,283.209625 153.450714,236.109192 
	C170.304947,236.109192 186.899826,236.109192 204.146149,236.109192 
	C208.606079,282.795502 213.079407,329.621857 217.591507,376.854309 
	C207.291794,376.854309 197.394394,376.854309 186.998611,376.854309 
	C186.317642,369.933411 185.622177,362.865234 184.900009,355.525726 
	C180.921951,355.525726 177.182022,355.525726 172.885742,355.525726 
	C172.382156,361.636871 171.801422,367.733063 171.415222,373.841614 
	C171.261948,376.265991 170.503006,377.635681 167.405792,377.222107 
M145.988022,362.511566 
	C145.680862,365.768799 145.373703,369.026031 145.055969,372.395447 
	C152.591690,372.395447 159.647781,372.395447 166.801163,372.395447 
	C167.245743,366.210449 167.861542,360.410278 168.003204,354.598541 
	C168.083618,351.299500 169.313812,350.219360 172.493576,350.363342 
	C176.814987,350.559052 181.160431,350.577881 185.479324,350.356140 
	C188.532684,350.199402 189.571793,351.437714 189.745193,354.333130 
	C190.101395,360.281677 190.710220,366.215088 191.240601,372.454956 
	C198.262039,372.454956 204.992264,372.454956 212.448959,372.454956 
	C208.238068,328.376221 204.055710,284.596222 199.852585,240.598755 
	C186.895386,240.598755 174.575226,240.757675 162.263565,240.504196 
	C158.452255,240.425751 157.470352,241.924500 157.150787,245.320114 
	C153.502335,284.087708 149.750549,322.845612 145.988022,362.511566 
z"/>
<path fill="#E5471D" opacity="1.000000" stroke="none" 
	d="
M286.035217,310.964905 
	C278.182648,323.920105 265.482666,323.238739 252.747604,323.063629 
	C252.747604,341.168365 252.747604,358.774048 252.747604,376.804626 
	C242.127350,376.804626 231.906738,376.804626 221.321396,376.804626 
	C221.321396,330.051025 221.321396,283.184540 221.321396,236.361404 
	C236.570572,236.361404 251.882278,235.696762 267.102081,236.593155 
	C277.390076,237.199066 284.713257,243.898880 287.922424,253.655930 
	C294.201294,272.746002 294.378326,291.868286 286.035217,310.964905 
M247.962738,363.480743 
	C247.962738,348.578613 247.962738,333.676453 247.962738,318.015045 
	C254.524582,318.015045 260.348907,318.330597 266.125092,317.938171 
	C274.006897,317.402710 280.099091,313.718079 283.098114,306.082214 
	C288.904083,291.299683 288.807251,276.026642 285.274902,260.927582 
	C281.816071,246.142990 274.375916,240.828964 259.277008,240.641068 
	C249.450302,240.518784 239.620804,240.602325 229.792725,240.639923 
	C228.527283,240.644775 227.262894,240.928131 226.102905,241.069672 
	C226.102905,285.121582 226.102905,328.797638 226.102905,372.583038 
	C233.560898,372.583038 240.530457,372.583038 247.962738,372.583038 
	C247.962738,369.764343 247.962738,367.119629 247.962738,363.480743 
z"/>
<path fill="#E6471D" opacity="1.000000" stroke="none" 
	d="
M296.102936,248.029297 
	C296.102936,243.880966 296.102936,240.226547 296.102936,236.302734 
	C297.243469,236.103882 298.165009,235.805557 299.087250,235.803284 
	C310.916656,235.774063 322.750793,235.577728 334.574615,235.838531 
	C352.357544,236.230774 360.881317,242.680557 365.172455,259.992676 
	C368.913849,275.086823 368.575073,290.400940 363.826172,305.305054 
	C360.167694,316.786835 351.496124,322.759064 339.359222,323.022797 
	C335.731079,323.101654 332.099762,323.035004 327.993408,323.035004 
	C327.993408,341.217682 327.993408,358.967896 327.993408,376.972168 
	C317.230743,376.972168 306.955872,376.972168 296.102936,376.972168 
	C296.102936,334.043030 296.102936,291.283112 296.102936,248.029297 
M323.104919,328.552124 
	C323.104919,325.411255 323.104919,322.270386 323.104919,318.023224 
	C329.421692,318.023224 335.383392,318.335571 341.298889,317.946259 
	C349.171875,317.428131 355.425476,313.821503 358.290649,306.146759 
	C364.640320,289.138062 364.487793,271.908722 358.620941,254.855865 
	C356.072266,247.447769 350.348328,241.972580 342.567474,241.502869 
	C328.877655,240.676437 315.102020,241.271820 301.273071,241.271820 
	C301.273071,285.000458 301.273071,328.685547 301.273071,372.373993 
	C308.705933,372.373993 315.755157,372.373993 323.104919,372.373993 
	C323.104919,357.829529 323.104919,343.683960 323.104919,328.552124 
z"/>
<path fill="#080201" opacity="1.000000" stroke="none" 
	d="
M97.122246,146.122757 
	C94.275803,147.166428 91.660187,147.862411 88.440140,148.719223 
	C88.440140,140.453278 88.440140,133.107666 88.440140,125.778633 
	C96.969955,124.328812 99.032799,125.815826 98.924232,134.061005 
	C98.872734,137.971909 97.905472,141.870758 97.122246,146.122757 
z"/>
<path fill="#020100" opacity="1.000000" stroke="none" 
	d="
M146.007187,362.058838 
	C149.750549,322.845612 153.502335,284.087708 157.150787,245.320114 
	C157.470352,241.924500 158.452255,240.425751 162.263565,240.504196 
	C174.575226,240.757675 186.895386,240.598755 199.852585,240.598755 
	C204.055710,284.596222 208.238068,328.376221 212.448959,372.454956 
	C204.992264,372.454956 198.262039,372.454956 191.240601,372.454956 
	C190.710220,366.215088 190.101395,360.281677 189.745193,354.333130 
	C189.571793,351.437714 188.532684,350.199402 185.479324,350.356140 
	C181.160431,350.577881 176.814987,350.559052 172.493576,350.363342 
	C169.313812,350.219360 168.083618,351.299500 168.003204,354.598541 
	C167.861542,360.410278 167.245743,366.210449 166.801163,372.395447 
	C159.647781,372.395447 152.591690,372.395447 145.055969,372.395447 
	C145.373703,369.026031 145.680862,365.768799 146.007187,362.058838 
M174.596756,272.954193 
	C173.135132,292.813873 171.673523,312.673553 170.187958,332.858643 
	C176.114868,332.858643 181.646286,332.858643 187.590591,332.858643 
	C185.431717,308.046387 183.306625,283.622406 181.158371,258.932159 
	C178.949570,259.057129 177.377197,259.146088 175.526886,259.250763 
	C175.244537,263.760162 174.985519,267.897003 174.596756,272.954193 
z"/>
<path fill="#010000" opacity="1.000000" stroke="none" 
	d="
M247.962738,363.977844 
	C247.962738,367.119629 247.962738,369.764343 247.962738,372.583038 
	C240.530457,372.583038 233.560898,372.583038 226.102905,372.583038 
	C226.102905,328.797638 226.102905,285.121582 226.102905,241.069672 
	C227.262894,240.928131 228.527283,240.644775 229.792725,240.639923 
	C239.620804,240.602325 249.450302,240.518784 259.277008,240.641068 
	C274.375916,240.828964 281.816071,246.142990 285.274902,260.927582 
	C288.807251,276.026642 288.904083,291.299683 283.098114,306.082214 
	C280.099091,313.718079 274.006897,317.402710 266.125092,317.938171 
	C260.348907,318.330597 254.524582,318.015045 247.962738,318.015045 
	C247.962738,333.676453 247.962738,348.578613 247.962738,363.977844 
M256.349457,260.978638 
	C253.616165,260.978638 250.882874,260.978638 248.322968,260.978638 
	C248.322968,273.793854 248.322968,286.011841 248.322968,298.191528 
	C258.809326,299.029297 263.636078,296.185059 264.538269,287.687500 
	C265.161713,281.815491 264.618469,275.779449 264.176697,269.847992 
	C263.856049,265.543121 261.426697,262.449493 256.349457,260.978638 
z"/>
<path fill="#010000" opacity="1.000000" stroke="none" 
	d="
M323.104919,329.045227 
	C323.104919,343.683960 323.104919,357.829529 323.104919,372.373993 
	C315.755157,372.373993 308.705933,372.373993 301.273071,372.373993 
	C301.273071,328.685547 301.273071,285.000458 301.273071,241.271820 
	C315.102020,241.271820 328.877655,240.676437 342.567474,241.502869 
	C350.348328,241.972580 356.072266,247.447769 358.620941,254.855865 
	C364.487793,271.908722 364.640320,289.138062 358.290649,306.146759 
	C355.425476,313.821503 349.171875,317.428131 341.298889,317.946259 
	C335.383392,318.335571 329.421692,318.023224 323.104919,318.023224 
	C323.104919,322.270386 323.104919,325.411255 323.104919,329.045227 
M340.030182,272.892334 
	C338.391510,262.259796 334.485443,259.488953 323.516235,261.336823 
	C323.516235,273.612183 323.516235,285.915314 323.516235,298.180298 
	C335.142883,299.139099 339.773743,295.210052 340.178406,284.255646 
	C340.306824,280.780182 340.127747,277.293396 340.030182,272.892334 
z"/>
<path fill="#EB491D" opacity="1.000000" stroke="none" 
	d="
M174.661621,272.494019 
	C174.985519,267.897003 175.244537,263.760162 175.526886,259.250763 
	C177.377197,259.146088 178.949570,259.057129 181.158371,258.932159 
	C183.306625,283.622406 185.431717,308.046387 187.590591,332.858643 
	C181.646286,332.858643 176.114868,332.858643 170.187958,332.858643 
	C171.673523,312.673553 173.135132,292.813873 174.661621,272.494019 
M176.883194,305.460327 
	C176.330536,313.025055 175.777893,320.589783 175.200287,328.496033 
	C177.686935,328.496033 179.734451,328.496033 182.494476,328.496033 
	C181.344315,315.088287 180.221008,301.993713 179.097702,288.899139 
	C178.776718,288.903381 178.455734,288.907593 178.134750,288.911835 
	C177.749893,294.116547 177.365051,299.321259 176.883194,305.460327 
z"/>
<path fill="#E7471D" opacity="1.000000" stroke="none" 
	d="
M256.737183,261.045044 
	C261.426697,262.449493 263.856049,265.543121 264.176697,269.847992 
	C264.618469,275.779449 265.161713,281.815491 264.538269,287.687500 
	C263.636078,296.185059 258.809326,299.029297 248.322968,298.191528 
	C248.322968,286.011841 248.322968,273.793854 248.322968,260.978638 
	C250.882874,260.978638 253.616165,260.978638 256.737183,261.045044 
M260.388550,282.353729 
	C260.222748,278.700226 260.300690,275.014435 259.821716,271.402435 
	C259.353546,267.872009 257.779541,265.039703 253.066605,265.688141 
	C253.066605,274.891571 253.066605,284.022461 253.066605,293.347321 
	C260.489441,293.106842 259.728424,287.720459 260.388550,282.353729 
z"/>
<path fill="#E9481D" opacity="1.000000" stroke="none" 
	d="
M340.059814,273.352051 
	C340.127747,277.293396 340.306824,280.780182 340.178406,284.255646 
	C339.773743,295.210052 335.142883,299.139099 323.516235,298.180298 
	C323.516235,285.915314 323.516235,273.612183 323.516235,261.336823 
	C334.485443,259.488953 338.391510,262.259796 340.059814,273.352051 
M327.873505,274.582825 
	C327.873505,280.803009 327.873505,287.023193 327.873505,293.236633 
	C332.279327,293.546173 334.725891,291.804504 334.919647,288.369476 
	C335.254242,282.437317 335.237152,276.451843 334.838959,270.524261 
	C334.596893,266.920563 332.148773,265.056030 327.873505,265.578918 
	C327.873505,268.334564 327.873505,270.974457 327.873505,274.582825 
z"/>
<path fill="#0C0401" opacity="1.000000" stroke="none" 
	d="
M176.931702,304.993164 
	C177.365051,299.321259 177.749893,294.116547 178.134750,288.911835 
	C178.455734,288.907593 178.776718,288.903381 179.097702,288.899139 
	C180.221008,301.993713 181.344315,315.088287 182.494476,328.496033 
	C179.734451,328.496033 177.686935,328.496033 175.200287,328.496033 
	C175.777893,320.589783 176.330536,313.025055 176.931702,304.993164 
z"/>
<path fill="#040100" opacity="1.000000" stroke="none" 
	d="
M260.372253,282.824585 
	C259.728424,287.720459 260.489441,293.106842 253.066605,293.347321 
	C253.066605,284.022461 253.066605,274.891571 253.066605,265.688141 
	C257.779541,265.039703 259.353546,267.872009 259.821716,271.402435 
	C260.300690,275.014435 260.222748,278.700226 260.372253,282.824585 
z"/>
<path fill="#070201" opacity="1.000000" stroke="none" 
	d="
M327.873505,274.098572 
	C327.873505,270.974457 327.873505,268.334564 327.873505,265.578918 
	C332.148773,265.056030 334.596893,266.920563 334.838959,270.524261 
	C335.237152,276.451843 335.254242,282.437317 334.919647,288.369476 
	C334.725891,291.804504 332.279327,293.546173 327.873505,293.236633 
	C327.873505,287.023193 327.873505,280.803009 327.873505,274.098572 
z"/>
</svg>